# xmcd CD database generated by RipIT
#
# Track frame offsets:
# 150
# 11222
# 21519
# 33922
# 45880
# 57135
# 69432
# 81502
# 95445
# 108235
# 124580
# 135432
# 149372
# 162230
# 173372
# 186709
# 199317
# 213487
# 226522
# 238807
#
# Disc length: 3356 seconds
#
# Revision: 0
# Processed by: cddbd v1.5.1PL0 Copyright (c) Steve Scherf et al.
# Submitted via: RipIT 3.3.3 www.suwald.com/ripit/ripit.html at Sat Apr 30 10:51:04 BST 2005
#
DISCID=100d1a14
DTITLE=Various Artist - Blues Box CD3
DYEAR=1900
DGENRE=Blues
TTITLE0=Nellie Hutcher - Hurry On Down
TTITLE1=Lightnin' Hopkins - Down Baby
TTITLE2=Memphis Slim - Slim's Boogie
TTITLE3=Lonnie Johnson - Crowing Rooster Blues
TTITLE4=Joe Turner - Howlin' Winds
TTITLE5=Sonny Terry - Whoopin' The Blues
TTITLE6=T-Bone Walker - Lonesome Woman Blues
TTITLE7=Cathy Cooper and Bardu Ali - Pay Day Blues
TTITLE8=Memphis Minnie - I Am Sailin'
TTITLE9=Mississippi Fred McDowell - My Baby Done Me Wrong
TTITLE10=Muddy Waters - Muddy Jumps One
TTITLE11=Earl Hooker - The Screwdriver
TTITLE12=Amos Milburn - Chicken Shack Boogie
TTITLE13=Marion Abernathy - My Man Boogie
TTITLE14=Sonny Boy Williamson - War Time Blues
TTITLE15=Blind Boy Fuller - Piccolo Blues
TTITLE16=Screamin' Jay Hawkins - Sweet Ginny
TTITLE17=Big Bill Broozy - When I Been Drinking
TTITLE18=Champion Jack Dupree - Dupree Shake Dance
TTITLE19=Helen Humes - My Heart Belongs To Daddy
EXTD=
EXTT0=
EXTT1=
EXTT2=
EXTT3=
EXTT4=
EXTT5=
EXTT6=
EXTT7=
EXTT8=
EXTT9=
EXTT10=
EXTT11=
EXTT12=
EXTT13=
EXTT14=
EXTT15=
EXTT16=
EXTT17=
EXTT18=
EXTT19=
PLAYORDER=
